<mxfile host="Electron" agent="Mozilla/5.0 (Windows NT 10.0; Win64; x64) AppleWebKit/537.36 (KHTML, like Gecko) draw.io/26.0.16 Chrome/132.0.6834.196 Electron/34.2.0 Safari/537.36" version="26.0.16">
  <diagram name="Pagina-1" id="CXNjac72uQ7M_S8bmm5G">
    <mxGraphModel dx="1050" dy="621" grid="1" gridSize="10" guides="1" tooltips="1" connect="1" arrows="1" fold="1" page="1" pageScale="1" pageWidth="827" pageHeight="1169" math="0" shadow="0">
      <root>
        <mxCell id="0" />
        <mxCell id="1" parent="0" />
        <mxCell id="_njGe3V-XpI_Ps-x_KOy-6" style="edgeStyle=orthogonalEdgeStyle;rounded=0;orthogonalLoop=1;jettySize=auto;html=1;entryX=0;entryY=0.5;entryDx=0;entryDy=0;" parent="1" source="vDcHAlD8VlkiHtLQCZvQ-1" target="vDcHAlD8VlkiHtLQCZvQ-20" edge="1">
          <mxGeometry relative="1" as="geometry">
            <mxPoint x="90" y="450" as="sourcePoint" />
          </mxGeometry>
        </mxCell>
        <mxCell id="vDcHAlD8VlkiHtLQCZvQ-1" value="Ricercatore" style="shape=umlActor;verticalLabelPosition=bottom;verticalAlign=top;html=1;outlineConnect=0;" parent="1" vertex="1">
          <mxGeometry x="60" y="420" width="30" height="60" as="geometry" />
        </mxCell>
        <mxCell id="vDcHAlD8VlkiHtLQCZvQ-13" value="Sistema Digital Twin" style="swimlane;whiteSpace=wrap;html=1;" parent="1" vertex="1">
          <mxGeometry x="220" y="200" width="430" height="430" as="geometry" />
        </mxCell>
        <mxCell id="6UWMLdR94Pc0v0VIbXJz-34" style="edgeStyle=orthogonalEdgeStyle;rounded=0;orthogonalLoop=1;jettySize=auto;html=1;exitX=1;exitY=0.5;exitDx=0;exitDy=0;entryX=0.5;entryY=1;entryDx=0;entryDy=0;dashed=1;" parent="vDcHAlD8VlkiHtLQCZvQ-13" source="vDcHAlD8VlkiHtLQCZvQ-14" target="6UWMLdR94Pc0v0VIbXJz-33" edge="1">
          <mxGeometry relative="1" as="geometry" />
        </mxCell>
        <mxCell id="6UWMLdR94Pc0v0VIbXJz-35" value="&amp;lt;&amp;lt;extend&amp;gt;&amp;gt;" style="edgeLabel;html=1;align=center;verticalAlign=middle;resizable=0;points=[];" parent="6UWMLdR94Pc0v0VIbXJz-34" vertex="1" connectable="0">
          <mxGeometry x="0.2173" y="1" relative="1" as="geometry">
            <mxPoint as="offset" />
          </mxGeometry>
        </mxCell>
        <mxCell id="vDcHAlD8VlkiHtLQCZvQ-14" value="Monitorare i dati del paziente" style="ellipse;whiteSpace=wrap;html=1;" parent="vDcHAlD8VlkiHtLQCZvQ-13" vertex="1">
          <mxGeometry x="44" y="140" width="140" height="50" as="geometry" />
        </mxCell>
        <mxCell id="_njGe3V-XpI_Ps-x_KOy-9" style="edgeStyle=orthogonalEdgeStyle;rounded=0;orthogonalLoop=1;jettySize=auto;html=1;exitX=0.5;exitY=1;exitDx=0;exitDy=0;entryX=0.5;entryY=0;entryDx=0;entryDy=0;dashed=1;" parent="vDcHAlD8VlkiHtLQCZvQ-13" source="vDcHAlD8VlkiHtLQCZvQ-15" target="vDcHAlD8VlkiHtLQCZvQ-14" edge="1">
          <mxGeometry relative="1" as="geometry" />
        </mxCell>
        <mxCell id="_njGe3V-XpI_Ps-x_KOy-10" value="&amp;lt;&amp;lt;include&amp;gt;&amp;gt;" style="edgeLabel;html=1;align=center;verticalAlign=middle;resizable=0;points=[];" parent="_njGe3V-XpI_Ps-x_KOy-9" vertex="1" connectable="0">
          <mxGeometry x="-0.0833" y="1" relative="1" as="geometry">
            <mxPoint as="offset" />
          </mxGeometry>
        </mxCell>
        <mxCell id="vDcHAlD8VlkiHtLQCZvQ-15" value="Inviare istruzioni al ventilatore" style="ellipse;whiteSpace=wrap;html=1;" parent="vDcHAlD8VlkiHtLQCZvQ-13" vertex="1">
          <mxGeometry x="34" y="47.5" width="160" height="45" as="geometry" />
        </mxCell>
        <mxCell id="_njGe3V-XpI_Ps-x_KOy-34" style="edgeStyle=orthogonalEdgeStyle;rounded=0;orthogonalLoop=1;jettySize=auto;html=1;exitX=0.5;exitY=0;exitDx=0;exitDy=0;entryX=0.5;entryY=1;entryDx=0;entryDy=0;dashed=1;" parent="vDcHAlD8VlkiHtLQCZvQ-13" source="vDcHAlD8VlkiHtLQCZvQ-20" target="vDcHAlD8VlkiHtLQCZvQ-14" edge="1">
          <mxGeometry relative="1" as="geometry" />
        </mxCell>
        <mxCell id="_njGe3V-XpI_Ps-x_KOy-35" value="&amp;lt;&amp;lt;include&amp;gt;&amp;gt;" style="edgeLabel;html=1;align=center;verticalAlign=middle;resizable=0;points=[];" parent="_njGe3V-XpI_Ps-x_KOy-34" vertex="1" connectable="0">
          <mxGeometry x="-0.1877" relative="1" as="geometry">
            <mxPoint as="offset" />
          </mxGeometry>
        </mxCell>
        <mxCell id="vDcHAlD8VlkiHtLQCZvQ-20" value="Analizzare i dati storici" style="ellipse;whiteSpace=wrap;html=1;" parent="vDcHAlD8VlkiHtLQCZvQ-13" vertex="1">
          <mxGeometry x="54.5" y="230" width="119" height="40" as="geometry" />
        </mxCell>
        <mxCell id="6UWMLdR94Pc0v0VIbXJz-30" style="edgeStyle=orthogonalEdgeStyle;rounded=0;orthogonalLoop=1;jettySize=auto;html=1;exitX=1;exitY=0.5;exitDx=0;exitDy=0;entryX=0;entryY=0.5;entryDx=0;entryDy=0;dashed=1;" parent="vDcHAlD8VlkiHtLQCZvQ-13" source="6UWMLdR94Pc0v0VIbXJz-2" target="vDcHAlD8VlkiHtLQCZvQ-18" edge="1">
          <mxGeometry relative="1" as="geometry" />
        </mxCell>
        <mxCell id="6UWMLdR94Pc0v0VIbXJz-31" value="&amp;lt;&amp;lt;include&amp;gt;&amp;gt;" style="edgeLabel;html=1;align=center;verticalAlign=middle;resizable=0;points=[];" parent="6UWMLdR94Pc0v0VIbXJz-30" vertex="1" connectable="0">
          <mxGeometry x="-0.0483" relative="1" as="geometry">
            <mxPoint as="offset" />
          </mxGeometry>
        </mxCell>
        <mxCell id="6UWMLdR94Pc0v0VIbXJz-2" value="Inizializzare la simulazione" style="ellipse;whiteSpace=wrap;html=1;" parent="vDcHAlD8VlkiHtLQCZvQ-13" vertex="1">
          <mxGeometry x="47.63" y="290" width="132.75" height="50" as="geometry" />
        </mxCell>
        <mxCell id="vDcHAlD8VlkiHtLQCZvQ-16" value="Configurare la pipeline Kafka/ZeroMQ" style="ellipse;whiteSpace=wrap;html=1;" parent="vDcHAlD8VlkiHtLQCZvQ-13" vertex="1">
          <mxGeometry x="45" y="359" width="139" height="50" as="geometry" />
        </mxCell>
        <mxCell id="vDcHAlD8VlkiHtLQCZvQ-6" value="Sviluppatore" style="shape=umlActor;verticalLabelPosition=bottom;verticalAlign=top;html=1;outlineConnect=0;" parent="vDcHAlD8VlkiHtLQCZvQ-13" vertex="1">
          <mxGeometry x="-160" y="354" width="30" height="60" as="geometry" />
        </mxCell>
        <mxCell id="_njGe3V-XpI_Ps-x_KOy-7" style="edgeStyle=orthogonalEdgeStyle;rounded=0;orthogonalLoop=1;jettySize=auto;html=1;" parent="vDcHAlD8VlkiHtLQCZvQ-13" source="vDcHAlD8VlkiHtLQCZvQ-6" target="vDcHAlD8VlkiHtLQCZvQ-16" edge="1">
          <mxGeometry relative="1" as="geometry" />
        </mxCell>
        <mxCell id="_njGe3V-XpI_Ps-x_KOy-38" style="edgeStyle=orthogonalEdgeStyle;rounded=0;orthogonalLoop=1;jettySize=auto;html=1;exitX=0.5;exitY=0;exitDx=0;exitDy=0;entryX=0.5;entryY=1;entryDx=0;entryDy=0;dashed=1;" parent="vDcHAlD8VlkiHtLQCZvQ-13" source="vDcHAlD8VlkiHtLQCZvQ-18" target="vDcHAlD8VlkiHtLQCZvQ-19" edge="1">
          <mxGeometry relative="1" as="geometry" />
        </mxCell>
        <mxCell id="_njGe3V-XpI_Ps-x_KOy-46" value="&amp;lt;&amp;lt;include&amp;gt;&amp;gt;" style="edgeLabel;html=1;align=center;verticalAlign=middle;resizable=0;points=[];" parent="_njGe3V-XpI_Ps-x_KOy-38" vertex="1" connectable="0">
          <mxGeometry x="-0.1401" y="-1" relative="1" as="geometry">
            <mxPoint as="offset" />
          </mxGeometry>
        </mxCell>
        <mxCell id="vDcHAlD8VlkiHtLQCZvQ-3" value="Paziente" style="shape=umlActor;verticalLabelPosition=bottom;verticalAlign=top;html=1;outlineConnect=0;" parent="vDcHAlD8VlkiHtLQCZvQ-13" vertex="1">
          <mxGeometry x="524" y="225" width="30" height="60" as="geometry" />
        </mxCell>
        <mxCell id="vDcHAlD8VlkiHtLQCZvQ-4" value="Sistema di ventilazione" style="shape=umlActor;verticalLabelPosition=bottom;verticalAlign=top;html=1;outlineConnect=0;" parent="vDcHAlD8VlkiHtLQCZvQ-13" vertex="1">
          <mxGeometry x="524" y="345" width="30" height="60" as="geometry" />
        </mxCell>
        <mxCell id="_njGe3V-XpI_Ps-x_KOy-43" style="edgeStyle=orthogonalEdgeStyle;rounded=0;orthogonalLoop=1;jettySize=auto;html=1;entryX=1;entryY=0.5;entryDx=0;entryDy=0;" parent="vDcHAlD8VlkiHtLQCZvQ-13" source="vDcHAlD8VlkiHtLQCZvQ-3" target="vDcHAlD8VlkiHtLQCZvQ-18" edge="1">
          <mxGeometry relative="1" as="geometry">
            <mxPoint x="460" y="170" as="sourcePoint" />
            <Array as="points">
              <mxPoint x="470" y="255" />
              <mxPoint x="470" y="315" />
            </Array>
          </mxGeometry>
        </mxCell>
        <mxCell id="vDcHAlD8VlkiHtLQCZvQ-18" value="Acquisire dati dal Physical Twin" style="ellipse;whiteSpace=wrap;html=1;" parent="vDcHAlD8VlkiHtLQCZvQ-13" vertex="1">
          <mxGeometry x="277.25" y="290" width="132.75" height="50" as="geometry" />
        </mxCell>
        <mxCell id="_njGe3V-XpI_Ps-x_KOy-42" style="edgeStyle=orthogonalEdgeStyle;rounded=0;orthogonalLoop=1;jettySize=auto;html=1;entryX=1;entryY=0.5;entryDx=0;entryDy=0;" parent="vDcHAlD8VlkiHtLQCZvQ-13" source="vDcHAlD8VlkiHtLQCZvQ-4" target="vDcHAlD8VlkiHtLQCZvQ-18" edge="1">
          <mxGeometry relative="1" as="geometry">
            <mxPoint x="460" y="290" as="sourcePoint" />
            <Array as="points">
              <mxPoint x="470" y="375" />
              <mxPoint x="470" y="315" />
            </Array>
          </mxGeometry>
        </mxCell>
        <mxCell id="vDcHAlD8VlkiHtLQCZvQ-19" value="Archiviare i dati nel Database" style="ellipse;whiteSpace=wrap;html=1;" parent="vDcHAlD8VlkiHtLQCZvQ-13" vertex="1">
          <mxGeometry x="277.25" y="190" width="132.5" height="50" as="geometry" />
        </mxCell>
        <mxCell id="6UWMLdR94Pc0v0VIbXJz-33" value="Generazione dei report" style="ellipse;whiteSpace=wrap;html=1;fillColor=#f8cecc;strokeColor=#b85450;" parent="vDcHAlD8VlkiHtLQCZvQ-13" vertex="1">
          <mxGeometry x="277.5" y="90" width="132.5" height="50" as="geometry" />
        </mxCell>
        <mxCell id="_njGe3V-XpI_Ps-x_KOy-2" value="" style="edgeStyle=orthogonalEdgeStyle;rounded=0;orthogonalLoop=1;jettySize=auto;html=1;entryX=0;entryY=0.5;entryDx=0;entryDy=0;" parent="1" source="_njGe3V-XpI_Ps-x_KOy-1" target="vDcHAlD8VlkiHtLQCZvQ-14" edge="1">
          <mxGeometry relative="1" as="geometry">
            <mxPoint x="90" y="270" as="sourcePoint" />
            <Array as="points">
              <mxPoint x="170" y="280" />
              <mxPoint x="170" y="365" />
            </Array>
          </mxGeometry>
        </mxCell>
        <mxCell id="_njGe3V-XpI_Ps-x_KOy-33" style="edgeStyle=orthogonalEdgeStyle;rounded=0;orthogonalLoop=1;jettySize=auto;html=1;entryX=0;entryY=0.5;entryDx=0;entryDy=0;" parent="1" source="_njGe3V-XpI_Ps-x_KOy-1" target="vDcHAlD8VlkiHtLQCZvQ-15" edge="1">
          <mxGeometry relative="1" as="geometry">
            <mxPoint x="90" y="270" as="sourcePoint" />
            <Array as="points" />
          </mxGeometry>
        </mxCell>
        <mxCell id="_njGe3V-XpI_Ps-x_KOy-1" value="Operatore medico" style="shape=umlActor;verticalLabelPosition=bottom;verticalAlign=top;html=1;outlineConnect=0;" parent="1" vertex="1">
          <mxGeometry x="60" y="240" width="30" height="60" as="geometry" />
        </mxCell>
        <mxCell id="6UWMLdR94Pc0v0VIbXJz-3" value="" style="edgeStyle=orthogonalEdgeStyle;rounded=0;orthogonalLoop=1;jettySize=auto;html=1;entryX=0;entryY=0.5;entryDx=0;entryDy=0;" parent="1" source="_njGe3V-XpI_Ps-x_KOy-1" target="6UWMLdR94Pc0v0VIbXJz-2" edge="1">
          <mxGeometry relative="1" as="geometry">
            <mxPoint x="100" y="290" as="sourcePoint" />
            <Array as="points">
              <mxPoint x="160" y="290" />
              <mxPoint x="160" y="515" />
            </Array>
            <mxPoint x="274" y="375" as="targetPoint" />
          </mxGeometry>
        </mxCell>
        <mxCell id="6UWMLdR94Pc0v0VIbXJz-5" style="edgeStyle=orthogonalEdgeStyle;rounded=0;orthogonalLoop=1;jettySize=auto;html=1;entryX=0;entryY=0.5;entryDx=0;entryDy=0;" parent="1" source="vDcHAlD8VlkiHtLQCZvQ-1" target="6UWMLdR94Pc0v0VIbXJz-2" edge="1">
          <mxGeometry relative="1" as="geometry">
            <mxPoint x="100" y="460" as="sourcePoint" />
            <mxPoint x="285" y="469" as="targetPoint" />
            <Array as="points">
              <mxPoint x="150" y="460" />
              <mxPoint x="150" y="515" />
            </Array>
          </mxGeometry>
        </mxCell>
      </root>
    </mxGraphModel>
  </diagram>
</mxfile>
